<?xml version="1.0" standalone="no"?>
<!DOCTYPE svg PUBLIC "-//W3C//DTD SVG 20010904//EN"
 "http://www.w3.org/TR/2001/REC-SVG-20010904/DTD/svg10.dtd">
<svg version="1.0" xmlns="http://www.w3.org/2000/svg"
 width="203.000000pt" height="203.000000pt" viewBox="0 0 203.000000 203.000000"
 preserveAspectRatio="xMidYMid meet">
<metadata>
Created by potrace 1.11, written by Peter Selinger 2001-2013
</metadata>
<g transform="translate(0.000000,203.000000) scale(0.100000,-0.100000)"
fill="#000000" stroke="none">
<path d="M918 1704 c-4 -3 -13 -7 -22 -8 -9 -1 -23 -11 -32 -22 -15 -19 -16
-19 -10 1 5 17 4 18 -6 5 -14 -16 -58 -23 -58 -9 0 5 -5 9 -11 9 -6 0 -2 -12
9 -27 32 -47 32 -50 9 -48 -16 1 -22 8 -22 26 -1 13 -6 23 -13 22 -7 -2 -13 2
-13 7 -1 5 -2 14 -3 19 0 5 -4 13 -8 16 -4 4 -5 -5 -2 -20 3 -20 1 -25 -8 -19
-10 6 -10 4 0 -9 8 -9 11 -22 7 -29 -4 -7 3 -2 15 12 16 18 19 19 11 5 -7 -15
-5 -25 7 -40 16 -19 16 -19 -3 -3 -17 16 -19 16 -31 0 -10 -13 -15 -14 -25 -5
-14 14 -42 6 -32 -10 4 -6 1 -7 -7 -2 -10 6 -12 4 -7 -9 4 -10 1 -19 -8 -22
-8 -4 -12 -11 -8 -17 3 -6 -4 -3 -16 6 -23 15 -56 13 -45 -4 3 -5 -6 -19 -19
-31 -13 -13 -27 -30 -30 -38 -4 -11 -6 -10 -6 4 -1 19 -1 19 -15 1 -8 -11 -12
-26 -9 -35 4 -13 4 -13 -6 0 -10 13 -15 8 -12 -12 0 -5 -3 -8 -9 -8 -5 0 -10
5 -10 10 0 6 0 13 0 18 0 4 4 7 9 7 5 0 13 3 17 8 4 4 0 7 -8 7 -9 0 -18 3
-21 8 -2 4 -2 1 -1 -5 2 -7 -1 -13 -6 -13 -5 0 -9 -15 -9 -32 0 -67 -1 -78
-11 -78 -5 0 -6 8 -3 18 6 15 5 15 -10 3 -13 -11 -15 -17 -6 -28 7 -7 9 -16 5
-20 -3 -3 -6 -1 -6 6 0 7 -5 9 -10 6 -7 -5 -8 -11 -1 -19 7 -8 5 -12 -9 -12
-14 0 -16 4 -10 17 5 9 6 20 2 24 -4 5 -2 5 4 2 6 -3 11 0 11 8 0 12 -3 12
-15 2 -13 -10 -14 -9 -10 3 3 8 12 14 21 14 9 -1 14 3 10 9 -3 6 -1 7 5 3 8
-5 10 -1 6 11 -5 15 -4 16 6 3 10 -13 11 -12 6 3 -3 11 -2 16 4 12 6 -3 10 -2
10 4 0 21 -18 19 -30 -4 -7 -14 -19 -25 -26 -25 -6 0 -17 -13 -22 -29 -9 -25
-8 -29 4 -24 10 4 12 0 8 -11 -3 -9 -10 -13 -15 -10 -5 3 -6 -2 -3 -11 4 -9 3
-15 -2 -14 -21 4 -35 -2 -29 -11 8 -13 -7 -13 -23 0 -7 5 -5 2 4 -8 13 -15 17
-15 27 -2 14 18 37 24 37 10 0 -5 -4 -10 -9 -10 -5 0 -8 -6 -7 -12 3 -25 17
-37 34 -32 14 5 15 4 2 -5 -11 -7 -19 -6 -32 6 -10 9 -18 11 -18 5 0 -6 4 -13
9 -16 13 -8 7 -36 -10 -47 -8 -5 -10 -9 -5 -9 5 0 2 -8 -5 -17 -12 -15 -12
-16 6 -9 11 4 16 4 12 0 -4 -4 -1 -14 5 -23 10 -13 10 -14 -2 -3 -24 20 -31
13 -14 -13 10 -15 12 -25 5 -25 -6 0 -11 5 -11 11 0 5 -5 7 -12 3 -8 -5 -5
-13 10 -25 17 -13 19 -19 9 -27 -14 -12 -46 2 -34 15 5 4 12 1 17 -7 7 -11 10
-11 10 -2 0 7 -7 15 -16 19 -8 3 -13 12 -10 19 8 20 -1 17 -25 -7 l-21 -21 22
7 c19 6 21 5 11 -13 -14 -26 -14 -43 -1 -22 8 13 10 13 10 -2 0 -9 -6 -21 -14
-25 -28 -16 -58 -92 -58 -147 0 -113 84 -195 206 -200 39 -1 50 -5 52 -20 1
-11 -2 -16 -10 -13 -7 3 -19 1 -27 -4 -12 -8 -12 -10 1 -8 31 3 39 -1 34 -18
-5 -17 -4 -17 9 0 10 12 17 14 22 7 3 -5 11 -7 17 -4 6 4 9 1 6 -7 -3 -8 -12
-13 -20 -11 -9 1 -22 -6 -29 -15 -12 -16 -12 -17 1 -7 19 14 50 14 50 1 0 -6
3 -7 7 -4 3 4 18 -6 33 -21 15 -16 34 -28 43 -26 10 1 17 -2 17 -7 0 -5 -5 -9
-12 -9 -6 0 -8 -3 -5 -6 4 -4 14 -1 23 7 10 8 19 13 21 11 3 -2 8 -1 11 3 4 4
3 6 -3 5 -5 -1 -17 -2 -25 -1 -12 1 -11 4 3 12 14 8 16 14 6 25 -10 12 -9 13
5 8 9 -3 17 -10 17 -15 3 -20 5 -25 13 -37 6 -11 11 -11 24 1 25 21 54 19 42
-3 -9 -17 -4 -30 11 -30 5 0 6 8 3 18 -5 13 -4 14 4 3 8 -11 10 -11 15 0 3 8
5 4 3 -8 -1 -12 -6 -26 -11 -30 -4 -5 -5 -1 0 7 6 12 5 13 -5 3 -19 -18 -4
-29 17 -12 15 12 16 12 10 -3 -7 -19 8 -34 18 -18 3 5 11 10 16 10 6 0 7 -6 3
-12 -5 -9 -2 -9 9 1 14 11 20 11 32 1 12 -10 13 -15 3 -28 -12 -13 -10 -14 9
-1 14 8 18 16 12 20 -7 4 -8 9 -1 13 5 3 15 -1 22 -9 14 -17 30 -20 30 -4 0 5
-5 7 -11 3 -8 -4 -9 1 -5 17 3 13 3 18 0 12 -3 -7 -10 -13 -16 -13 -7 0 -7 5
1 13 6 8 7 18 3 22 -4 5 -1 4 7 0 11 -6 13 -4 7 11 -4 10 -4 15 0 11 4 -4 14
-1 23 6 12 10 12 8 -2 -12 -13 -19 -14 -28 -4 -45 6 -12 10 -25 8 -31 -1 -5 7
-1 19 10 l21 19 -6 -29 -6 -30 14 30 c8 17 11 34 6 40 -5 5 -9 14 -9 20 0 5 4
3 10 -5 5 -8 12 -11 16 -7 4 3 1 15 -7 24 -7 10 -9 15 -5 11 5 -4 14 -4 20 1
8 7 11 -1 12 -25 0 -22 -2 -30 -7 -22 -5 7 -9 9 -9 3 0 -5 4 -16 9 -23 7 -11
10 -10 15 3 3 9 4 20 1 25 -3 4 2 13 10 20 8 7 13 16 10 20 -3 5 0 12 6 16 8
4 9 3 5 -4 -8 -13 5 -16 20 -5 5 5 1 0 -9 -9 -9 -9 -13 -19 -8 -22 5 -4 19 6
30 20 12 15 21 22 21 15 0 -6 3 -10 8 -10 20 3 32 -2 26 -12 -4 -8 -9 -7 -15
2 -7 11 -9 11 -9 -1 0 -13 -2 -13 -11 0 -9 13 -10 12 -5 -3 4 -11 2 -16 -5
-12 -5 4 -15 2 -22 -3 -7 -6 -16 -10 -22 -10 -20 -1 -15 -21 7 -32 21 -10 21
-10 6 3 -23 18 -23 22 2 24 11 1 18 -2 15 -7 -3 -4 2 -10 10 -14 16 -6 29 9
20 23 -3 5 -1 12 5 16 5 3 10 2 10 -2 0 -5 10 -14 23 -22 21 -13 22 -13 4 6
-9 11 -14 23 -10 26 10 11 23 8 20 -4 -1 -6 7 -13 18 -15 16 -2 13 3 -13 27
-18 16 -27 29 -22 29 6 0 8 5 4 12 -4 7 -3 8 5 4 6 -4 9 -12 6 -17 -4 -5 -2
-9 4 -9 5 0 15 8 20 18 8 13 10 13 11 2 0 -11 3 -11 12 -2 7 7 17 12 22 12 6
0 4 -5 -4 -10 -13 -8 -12 -10 3 -10 9 0 17 4 17 8 0 5 13 8 29 8 18 0 28 -4
24 -10 -3 -6 0 -5 8 1 9 9 51 13 133 13 149 0 184 9 229 59 38 42 55 107 42
158 -10 42 -51 91 -95 113 -34 17 -38 23 -31 42 13 37 -46 157 -70 142 -5 -3
-6 2 -3 10 3 9 10 16 16 16 5 0 6 5 2 11 -4 8 -9 8 -17 0 -14 -14 -27 -14 -27
0 0 5 4 8 9 5 11 -7 43 28 34 37 -11 12 -25 8 -17 -5 4 -7 3 -8 -5 -4 -8 6 -9
12 -2 20 7 9 7 17 -2 26 -7 8 -8 10 -1 7 8 -5 11 4 10 23 -1 25 -4 29 -21 24
-16 -4 -17 -3 -5 5 12 8 12 11 1 11 -9 0 -11 6 -6 18 4 9 8 22 8 28 0 12 27
15 27 2 0 -4 -6 -8 -12 -8 -9 0 -8 -3 2 -9 26 -17 31 0 11 35 -12 19 -16 36
-10 39 12 8 2 25 -14 25 -8 0 -8 -3 2 -9 8 -5 9 -11 3 -15 -5 -3 -15 1 -22 8
-9 12 -7 17 8 25 11 6 23 7 27 3 5 -4 5 -1 1 6 -5 8 -13 9 -26 2 -28 -15 -34
-12 -19 8 7 9 9 14 4 9 -4 -4 -17 0 -27 9 -17 16 -17 18 0 31 15 13 14 13 -6
3 -13 -7 -21 -14 -18 -17 3 -4 1 -12 -4 -18 -7 -9 -5 -17 6 -26 15 -12 16 -11
9 11 -7 22 -6 23 9 11 9 -8 14 -16 11 -19 -3 -3 1 -15 9 -27 13 -19 12 -23 -7
-34 -18 -11 -20 -11 -9 0 16 17 16 37 0 21 -7 -7 -17 -12 -22 -12 -6 0 -3 5 7
11 9 5 17 15 17 20 0 6 -4 8 -9 4 -11 -6 -51 33 -51 49 0 6 4 5 9 -3 6 -9 11
-10 15 -2 4 6 -6 19 -23 29 -17 9 -31 20 -31 24 0 4 -6 6 -12 4 -7 -1 -10 -1
-5 1 4 3 7 9 7 14 0 6 -4 8 -8 5 -16 -9 -51 24 -47 44 2 10 -9 35 -26 56 -16
20 -29 33 -29 27 0 -5 4 -13 9 -19 6 -5 -1 -16 -17 -28 l-27 -20 18 21 c14 16
15 22 5 26 -10 3 -11 9 -1 25 9 16 10 23 1 28 -7 4 -8 3 -4 -4 11 -18 -27 -32
-46 -18 -10 7 -14 17 -10 21 4 5 1 5 -6 1 -7 -5 -11 -11 -8 -14 9 -8 -25 -42
-35 -36 -5 3 -9 11 -9 17 0 8 3 8 9 -2 5 -8 11 -9 15 -3 3 5 -1 15 -9 22 -12
10 -16 9 -21 -4 -3 -9 -11 -16 -16 -16 -6 0 -6 6 1 14 8 10 9 16 1 21 -5 3
-10 1 -10 -4 0 -6 -6 -11 -14 -11 -8 0 -14 9 -13 19 0 11 5 17 9 15 5 -3 5
-10 2 -16 -5 -7 -2 -8 7 -2 21 13 40 14 32 1 -3 -7 -3 -9 2 -5 4 4 13 4 19 -2
8 -6 16 -3 23 9 10 16 8 22 -10 37 -22 19 -22 19 -4 -2 16 -20 14 -34 -5 -34
-5 0 -6 5 -2 12 4 7 3 8 -4 4 -7 -4 -12 -1 -12 6 0 9 -3 9 -10 -2 -9 -14 -14
-7 -11 13 1 5 -4 5 -11 1 -23 -15 -50 -15 -42 -2 5 9 2 9 -9 -1 -20 -16 -23
-1 -4 18 10 10 8 11 -6 5 -14 -5 -17 -14 -12 -43 3 -23 2 -31 -4 -22 -5 7 -10
9 -12 4 -2 -6 -13 -1 -24 10 -20 20 -20 20 2 8 14 -7 24 -8 28 -1 3 5 1 10 -5
10 -7 0 -9 9 -5 23 5 20 5 20 -9 -3 -8 -14 -17 -24 -20 -22 -3 1 -14 2 -23 2
-17 -1 -17 -1 0 -11 9 -5 17 -15 17 -22 0 -8 -2 -9 -8 -1 -13 19 -50 35 -57
24 -4 -6 -11 -7 -17 -4 -7 5 -9 2 -6 -8 4 -8 1 -15 -6 -15 -15 0 -18 34 -4 43
7 5 8 2 3 -7 -7 -11 -6 -12 6 -3 8 6 24 10 37 8 12 -2 22 1 22 7 0 5 4 7 10 4
6 -4 7 1 3 11 -4 12 -8 14 -11 6 -3 -9 -8 -10 -17 -2 -9 7 -16 6 -25 -5 -7 -8
-17 -12 -22 -9 -5 3 -1 12 9 20 10 7 15 14 12 14 -3 0 -8 -3 -11 -6z m-34 -38
c-9 -7 -14 -18 -10 -24 3 -6 1 -14 -5 -18 -8 -5 -9 -3 -5 5 6 8 2 11 -10 9
-11 -2 -21 -6 -24 -10 -3 -4 -11 1 -17 11 -10 16 -8 18 18 16 20 -2 34 3 42
16 6 10 15 15 20 12 4 -3 0 -11 -9 -17z m70 16 c3 -5 -1 -9 -9 -9 -8 0 -12 4
-9 9 3 4 7 8 9 8 2 0 6 -4 9 -8z m134 -57 c0 -35 -13 -31 -14 5 -1 16 2 28 6
25 4 -3 8 -16 8 -30z m-218 -20 c0 -2 -9 -3 -19 -2 -11 0 -18 5 -15 9 4 6 34
0 34 -7z m80 5 c0 -5 -2 -10 -4 -10 -3 0 -8 5 -11 10 -3 6 -1 10 4 10 6 0 11
-4 11 -10z m281 -23 c-13 -13 -26 -3 -16 12 3 6 11 8 17 5 6 -4 6 -10 -1 -17z
m33 -19 c-3 -5 -10 -5 -16 -2 -7 5 -9 1 -5 -9 3 -9 2 -19 -2 -21 -10 -7 -8 22
4 47 6 14 10 16 16 6 4 -7 5 -17 3 -21z m-59 2 c3 -5 1 -10 -4 -10 -6 0 -11 5
-11 10 0 6 2 10 4 10 3 0 8 -4 11 -10z m125 -26 c0 -8 -6 -14 -12 -15 -10 0
-10 -2 0 -6 16 -6 16 -20 -1 -20 -11 0 -17 46 -8 65 3 9 21 -11 21 -24z m-725
-43 c3 -5 2 -12 -3 -15 -5 -3 -9 1 -9 9 0 17 3 19 12 6z m800 -79 c-3 -3 -11
0 -18 7 -9 10 -8 11 6 5 10 -3 15 -9 12 -12z m25 -12 c0 -5 -5 -10 -11 -10 -5
0 -7 5 -4 10 3 6 8 10 11 10 2 0 4 -4 4 -10z m-945 -39 c3 -5 0 -13 -6 -17 -7
-4 -9 -3 -5 4 3 5 0 13 -6 15 -9 4 -10 6 -1 6 6 1 14 -3 18 -8z m960 0 c3 -5
2 -12 -3 -15 -5 -3 -9 1 -9 9 0 17 3 19 12 6z m115 -81 c0 -4 -8 -7 -17 -6
-12 1 -17 -5 -15 -17 3 -17 2 -17 -17 0 -26 21 -26 24 -3 16 9 -3 14 -3 10 2
-4 4 -3 14 3 22 9 10 15 10 25 2 8 -6 14 -15 14 -19z m-1115 0 c3 -5 1 -10 -4
-10 -6 0 -11 5 -11 10 0 6 2 10 4 10 3 0 8 -4 11 -10z m-31 -18 c3 -5 -1 -9
-9 -9 -8 0 -15 4 -15 9 0 4 4 8 9 8 6 0 12 -4 15 -8z m1129 -103 c-8 -8 -13
-7 -18 2 -5 8 -4 10 3 5 7 -4 12 -2 12 5 0 7 3 9 7 6 4 -4 2 -12 -4 -18z
m-1021 -547 c-7 -2 -9 -8 -6 -13 3 -6 12 -5 22 3 10 7 14 9 10 4 -4 -5 13 -27
37 -50 51 -49 49 -81 -3 -35 -18 16 -28 29 -22 29 5 0 7 7 3 16 -3 8 -12 13
-19 10 -7 -3 -16 -1 -19 5 -4 5 -10 7 -15 4 -4 -3 -7 3 -5 12 2 10 4 22 4 26
1 5 6 5 13 1 9 -6 9 -9 0 -12z m81 -42 c3 -11 1 -18 -4 -14 -5 3 -9 12 -9 20
0 20 7 17 13 -6z m40 -23 c7 3 9 3 5 -2 -4 -4 -3 -16 2 -25 7 -13 5 -22 -7
-31 -15 -13 -16 -11 -10 13 4 15 3 30 -3 33 -5 3 -10 12 -9 18 0 9 2 8 6 -1 2
-6 10 -9 16 -5z m87 -51 c0 -3 -4 -8 -10 -11 -5 -3 -10 -1 -10 4 0 6 5 11 10
11 6 0 10 -2 10 -4z m130 -31 c-8 -10 -5 -17 12 -29 21 -15 24 -14 43 7 11 13
17 18 13 12 -4 -7 -5 -15 -1 -18 3 -4 0 -13 -7 -22 -9 -11 -16 -12 -26 -4 -7
6 -18 8 -23 5 -5 -4 -13 -1 -16 4 -5 7 -11 5 -19 -5 -10 -15 -12 -13 -11 10 0
14 8 31 18 36 9 6 14 15 11 21 -4 7 -2 8 5 4 9 -6 9 -11 1 -21z m43 -10 c-7
-21 -12 -19 -10 4 0 11 5 18 9 15 4 -3 5 -11 1 -19z m110 0 c-3 -9 -8 -14 -10
-11 -3 3 -2 9 2 15 9 16 15 13 8 -4z m-12 -48 c-6 -6 -11 -9 -12 -6 0 2 -2 14
-5 27 -4 22 -3 22 12 7 13 -12 14 -19 5 -28z m157 8 c-3 -3 -9 2 -12 12 -6 14
-5 15 5 6 7 -7 10 -15 7 -18z"/>
<path d="M574 551 c7 -11 46 -35 46 -28 0 3 -12 12 -26 22 -15 9 -23 12 -20 6z"/>
<path d="M830 448 c0 -6 3 -8 7 -5 3 4 13 1 22 -6 14 -11 14 -10 2 6 -15 20
-31 22 -31 5z"/>
<path d="M995 1701 c-3 -5 0 -13 6 -17 7 -4 9 -3 5 4 -3 5 0 13 6 15 9 4 10 6
1 6 -6 1 -14 -3 -18 -8z"/>
<path d="M1097 1689 c7 -7 15 -10 18 -7 3 3 -2 9 -12 12 -14 6 -15 5 -6 -5z"/>
<path d="M615 1661 c-3 -5 -2 -12 3 -15 5 -3 9 1 9 9 0 17 -3 19 -12 6z"/>
<path d="M675 1651 c2 -11 6 -25 9 -30 7 -10 -19 -23 -28 -14 -11 11 -6 24 6
17 7 -5 8 -3 3 6 -6 10 -11 10 -20 -3 -7 -9 -16 -13 -20 -9 -5 4 -5 1 -1 -5 4
-7 4 -14 -1 -14 -4 -1 -21 -3 -37 -5 -15 -1 -31 -6 -35 -9 -3 -4 3 -6 14 -5
32 4 49 1 41 -7 -8 -8 -34 -14 -58 -14 -10 0 -21 -5 -24 -11 -5 -7 -2 -9 9 -5
9 3 21 -1 29 -10 11 -14 11 -16 -4 -11 -11 5 -18 0 -22 -15 -7 -27 -5 -28 17
-12 16 11 22 26 26 56 1 4 11 6 23 5 13 0 23 5 24 12 1 6 2 17 3 23 0 5 6 7
12 3 6 -3 7 -9 3 -13 -16 -11 -16 -41 0 -35 8 3 12 12 10 19 -7 17 37 48 50
35 13 -13 26 -13 26 1 0 5 -4 7 -10 4 -5 -3 -10 -1 -10 4 0 6 5 11 11 11 5 0
7 5 4 10 -3 6 -11 10 -16 10 -6 0 -7 -4 -4 -10 3 -5 1 -10 -4 -10 -6 0 -12 5
-12 10 -1 6 -2 14 -3 19 0 5 -4 13 -8 17 -4 3 -6 -3 -3 -15z"/>
<path d="M1230 1640 c6 -11 15 -20 20 -20 6 0 2 9 -7 20 -10 11 -19 20 -21 20
-1 0 2 -9 8 -20z"/>
<path d="M783 1625 c0 -8 4 -12 9 -9 5 3 6 10 3 15 -9 13 -12 11 -12 -6z"/>
<path d="M1310 1612 c0 -5 7 -9 15 -9 8 0 12 4 9 9 -3 4 -9 8 -15 8 -5 0 -9
-4 -9 -8z"/>
<path d="M1357 1573 c-4 -3 -7 -13 -7 -22 1 -13 3 -13 11 2 11 19 8 33 -4 20z"/>
<path d="M1384 1552 c3 -6 -3 -14 -15 -17 -17 -6 -19 -9 -8 -16 12 -7 12 -9 0
-9 -18 0 -1 -20 20 -24 8 -1 29 -16 47 -34 29 -27 36 -30 48 -18 8 8 14 18 14
22 0 5 -5 3 -12 -4 -24 -24 -31 -11 -7 15 13 15 16 21 6 13 -21 -16 -57 -21
-57 -8 0 4 6 8 13 8 8 1 7 5 -4 13 -9 7 -15 18 -13 25 1 7 0 8 -3 2 -2 -5 -10
-7 -15 -4 -7 4 -8 2 -4 -4 4 -7 1 -12 -8 -12 -19 0 -17 20 3 36 11 9 12 12 1
19 -8 5 -11 4 -6 -3z"/>
<path d="M484 1525 c-10 -8 -14 -15 -9 -15 6 0 3 -5 -5 -11 -10 -7 -11 -9 -2
-7 8 2 13 7 12 12 -1 4 7 14 17 22 10 7 15 14 12 14 -3 0 -14 -7 -25 -15z"/>
<path d="M501 1499 c-13 -18 -19 -29 -12 -25 6 4 11 1 11 -6 0 -10 3 -9 9 2 6
8 7 18 5 22 -3 4 -1 8 4 8 5 0 9 7 9 15 0 20 0 20 -26 -16z"/>
<path d="M1450 1489 c0 -5 5 -7 10 -4 6 3 10 8 10 11 0 2 -4 4 -10 4 -5 0 -10
-5 -10 -11z"/>
<path d="M441 1483 c-1 -6 -4 -20 -7 -30 -5 -17 -5 -17 6 0 6 10 9 23 6 30 -3
9 -5 9 -5 0z"/>
<path d="M375 1431 c-3 -5 -2 -12 3 -15 5 -3 9 1 9 9 0 17 -3 19 -12 6z"/>
<path d="M405 1429 c-4 -6 -5 -12 -2 -15 2 -3 7 2 10 11 7 17 1 20 -8 4z"/>
<path d="M1517 1423 c-10 -9 -9 -23 1 -23 5 0 9 7 9 15 0 17 -1 18 -10 8z"/>
<path d="M337 1311 c-4 -17 -3 -21 5 -13 5 5 8 16 6 23 -3 8 -7 3 -11 -10z"/>
<path d="M1595 1280 c10 -11 20 -20 23 -20 3 0 -3 9 -13 20 -10 11 -20 20 -23
20 -3 0 3 -9 13 -20z"/>
<path d="M320 1225 c-19 -14 -30 -25 -24 -25 10 0 73 49 63 50 -3 0 -20 -11
-39 -25z"/>
<path d="M1590 1235 c-10 -12 -15 -13 -20 -4 -4 6 -14 9 -21 7 -10 -3 -8 -8 7
-16 18 -9 25 -8 39 8 10 11 16 20 13 20 -3 0 -11 -7 -18 -15z"/>
<path d="M1616 1223 c-6 -14 -5 -15 5 -6 7 7 10 15 7 18 -3 3 -9 -2 -12 -12z"/>
<path d="M321 1191 c-16 -16 -19 -26 -13 -39 12 -22 4 -44 -11 -35 -7 3 -3 -3
7 -15 11 -12 22 -20 25 -17 3 4 -1 10 -9 15 -11 7 -12 10 -2 10 7 0 11 4 7 9
-3 5 -1 12 4 16 5 3 8 15 6 26 -3 14 0 19 9 16 8 -3 13 0 12 8 -4 26 -14 27
-35 6z"/>
<path d="M1585 1202 c-6 -4 -11 -13 -13 -20 -2 -9 3 -10 15 -4 10 5 24 7 31 5
6 -3 12 1 12 8 0 7 -3 9 -7 6 -3 -4 -11 -3 -17 3 -7 5 -16 6 -21 2z"/>
<path d="M1581 1157 c-8 -10 -7 -19 3 -33 10 -12 11 -23 5 -31 -7 -7 -6 -14 1
-18 8 -5 8 -10 0 -20 -7 -8 -7 -15 -1 -19 14 -9 38 3 38 19 0 8 -3 13 -6 11
-3 -2 -12 2 -19 10 -7 8 -9 14 -5 14 5 0 14 9 21 21 8 12 9 18 3 14 -6 -3 -11
0 -11 7 0 9 -3 9 -10 -2 -8 -12 -10 -10 -10 8 0 13 4 20 10 17 6 -3 10 -1 10
4 0 15 -15 14 -29 -2z m29 -107 c0 -5 -5 -10 -11 -10 -5 0 -7 5 -4 10 3 6 8
10 11 10 2 0 4 -4 4 -10z"/>
<path d="M275 1130 c-3 -6 1 -7 9 -4 18 7 21 14 7 14 -6 0 -13 -4 -16 -10z"/>
<path d="M1631 1102 c-7 -13 -6 -19 2 -19 7 0 13 9 13 19 0 10 -1 18 -3 18 -1
0 -7 -8 -12 -18z"/>
<path d="M1617 1024 c-6 -7 19 -64 29 -64 2 0 -2 13 -10 29 -9 16 -12 31 -9
35 4 3 4 6 1 6 -2 0 -7 -3 -11 -6z"/>
<path d="M547 509 c7 -7 15 -10 18 -7 3 3 -2 9 -12 12 -14 6 -15 5 -6 -5z"/>
<path d="M1235 491 c-2 -3 5 -17 16 -30 10 -13 19 -19 19 -14 0 5 -6 15 -12
22 -11 10 -8 12 12 8 14 -2 19 -2 13 0 -7 3 -13 8 -13 12 0 9 -29 10 -35 2z"/>
<path d="M1310 493 c0 -6 8 -17 18 -24 16 -13 16 -13 2 6 -8 11 -16 22 -17 24
-2 2 -3 0 -3 -6z"/>
<path d="M730 475 c-10 -12 -16 -13 -28 -3 -10 9 -13 9 -9 1 4 -6 4 -13 0 -16
-5 -2 -3 -2 4 -1 7 2 15 -1 19 -7 4 -6 11 -6 21 2 12 11 14 10 11 -6 -1 -10 4
-20 12 -22 13 -4 13 -3 0 6 -13 9 -13 11 0 11 10 0 11 3 3 11 -6 6 -9 18 -6
25 7 19 -11 18 -27 -1z m20 1 c0 -2 -8 -10 -17 -17 -16 -13 -17 -12 -4 4 13
16 21 21 21 13z"/>
<path d="M655 450 c-3 -5 -1 -10 4 -10 6 0 11 5 11 10 0 6 -2 10 -4 10 -3 0
-8 -4 -11 -10z"/>
<path d="M690 430 c0 -5 5 -10 10 -10 6 0 10 5 10 10 0 6 -4 10 -10 10 -5 0
-10 -4 -10 -10z"/>
<path d="M1037 397 c-3 -8 1 -14 8 -14 7 0 11 6 8 14 -3 7 -6 13 -8 13 -2 0
-5 -6 -8 -13z"/>
<path d="M796 392 c-3 -5 1 -9 9 -9 8 0 12 4 9 9 -3 4 -7 8 -9 8 -2 0 -6 -4
-9 -8z"/>
<path d="M870 389 c0 -5 5 -7 10 -4 6 3 10 8 10 11 0 2 -4 4 -10 4 -5 0 -10
-5 -10 -11z"/>
</g>
</svg>
